<svg width="118" height="118" viewBox="0 0 118 118" fill="none" xmlns="http://www.w3.org/2000/svg">
<path d="M83.2254 48.2095C83.0933 37.5188 81.1865 25.7942 71.5298 19.4938C62.8104 13.8054 50.9956 14.0824 42.3406 19.6484C41.1756 20.3933 40.0746 21.2337 39.0487 22.1608C35.27 25.6422 32.3333 29.9381 30.4614 34.7229C28.2703 40.2716 27.2822 46.2221 27.5624 52.181C28.1003 64.144 26.8022 76.1424 26.8022 88.1537C26.8022 88.5693 26.8022 89.046 27.1244 89.3101C27.412 89.4906 27.7561 89.5582 28.0907 89.5001C33.1219 89.2199 37.5767 88.3502 42.434 87.5417C48.4896 86.5368 55.0187 86.8234 61.1483 86.4401C64.7978 86.2276 68.634 85.6381 72.2835 85.7959C73.4463 85.8475 83.628 87.3582 83.6731 87.9863C82.7004 74.664 83.3897 61.5221 83.2254 48.2095ZM47.6714 46.8631L43.133 43.642C46.7827 42.4046 50.2445 40.6704 53.421 38.4884C56.2973 36.5841 58.7028 34.0508 60.4558 31.0799L62.295 32.2427L47.6714 46.8631Z" fill="#00214E"/>
<path d="M95.4753 90.3086C85.0083 98.368 72.155 102.711 58.9449 102.653C45.7347 102.595 32.9203 98.138 22.5249 89.9865L38.1985 82.6393C38.6783 82.4125 39.146 82.1609 39.5997 81.8856L39.9605 81.6601C40.0893 81.5796 40.2149 81.4958 40.3405 81.4089C42.318 80.0447 43.9386 78.2252 45.0658 76.1038C46.3542 73.6719 46.7794 70.9856 46.7987 68.2477C46.7987 66.7434 46.7375 65.2392 46.6989 63.7382C46.6989 63.4011 46.6924 63.0628 46.6796 62.7236C46.6667 61.7036 46.6559 60.6825 46.6474 59.6603H46.6699L47.2851 59.9824L48.9601 60.8489L58.7166 62.5077L68.7406 64.2149L68.9692 71.9454L69.0337 74.1615V74.5062L69.185 79.618L72.8796 81.1222L75.7785 82.2947L95.4753 90.3086Z" fill="#F2A196"/>
<path d="M68.9693 71.9486C68.275 72.424 67.4457 72.6624 66.605 72.6282C61.8443 72.1161 52.5483 68.3829 46.7054 61.4737C46.7054 61.1366 46.6989 60.7984 46.686 60.4591V59.6635L47.3013 59.9856L48.9762 60.8521L58.7328 62.5109L68.7567 64.2181L68.9693 71.9486Z" fill="#E88870"/>
<path d="M38.5947 54.8191C41.6189 54.8191 44.0705 52.3675 44.0705 49.3433C44.0705 46.3191 41.6189 43.8675 38.5947 43.8675C35.5705 43.8675 33.1189 46.3191 33.1189 49.3433C33.1189 52.3675 35.5705 54.8191 38.5947 54.8191Z" fill="#F2A196"/>
<path d="M40.5273 54.1748C43.5515 54.1748 46.0031 51.7232 46.0031 48.6991C46.0031 45.6749 43.5515 43.2233 40.5273 43.2233C37.5031 43.2233 35.0515 45.6749 35.0515 48.6991C35.0515 51.7232 37.5031 54.1748 40.5273 54.1748Z" fill="#E88870"/>
<path d="M75.8106 41.0523C79.5921 54.1556 71.5588 69.9999 66.6177 69.9999C59.8535 69.9999 43.4261 64.595 39.6478 51.4918C35.8695 38.3885 40.9073 25.427 50.8925 22.5474C60.8778 19.6678 72.029 27.9459 75.8106 41.0523Z" fill="#F2A196"/>
<path d="M57.1125 56.9707C58.6595 58.7 60.7815 59.8091 63.0844 60.0919" stroke="#00214E" stroke-width="2.18376" stroke-miterlimit="10"/>
<path d="M63.7543 42.4309C63.7382 42.4953 65.2972 45.1881 66.1089 48.0967C66.4858 49.6526 66.6612 51.2504 66.6307 52.851H62.2791" stroke="#00214E" stroke-width="2.18376" stroke-miterlimit="10"/>
<path d="M67.7517 39.6898C70.0274 38.5305 72.6592 38.2817 75.1118 38.994" stroke="#00214E" stroke-width="2.18376" stroke-miterlimit="10"/>
<path d="M48.699 40.9718C50.249 40.1822 51.9541 39.744 53.6927 39.6884C55.4314 39.6327 57.1609 39.9609 58.7583 40.6497" stroke="#00214E" stroke-width="2.18376" stroke-miterlimit="10"/>
<path d="M54.3487 43.8256C56.3135 43.8417 56.3135 46.847 54.3487 46.8599H54.2617C52.2969 46.8599 52.2969 43.8417 54.2617 43.8256H54.3487Z" fill="#00214E"/>
<path d="M70.4959 43.3779C72.319 43.3779 72.319 46.1802 70.4959 46.1931H70.4154C68.5891 46.1931 68.5891 43.3908 70.4154 43.3779H70.4959Z" fill="#00214E"/>
<path d="M64.0763 19.1073C63.9264 20.6242 63.6822 22.1302 63.3451 23.6167C62.7688 26.2399 61.791 28.7584 60.4461 31.0831C58.6932 34.054 56.2876 36.5873 53.4114 38.4916C50.2349 40.6736 46.773 42.4078 43.1233 43.6452C40.233 44.6271 37.2774 45.4053 34.2783 45.9741C34.3782 43.5164 34.2783 40.4757 34.5811 37.6219C34.8066 35.5733 35.2575 33.6181 36.1659 32.043C38.6304 27.8754 42.2254 24.4914 46.5344 22.2832L46.5731 22.2639C51.337 19.8127 58.7164 17.3937 64.0763 19.1073Z" fill="#00214E"/>
<path d="M95.4753 90.3086C85.0083 98.3679 72.155 102.711 58.9449 102.653C45.7347 102.595 32.9203 98.138 22.5249 89.9865L38.1985 82.6393C38.945 82.2884 39.6614 81.8769 40.3405 81.4089C40.5467 81.2671 40.7528 81.119 40.9493 80.9643C42.6551 79.6591 44.0593 78.0012 45.0658 76.1038C45.8268 74.6459 46.3323 73.0684 46.5604 71.4397C46.7879 71.6601 47.0265 71.8687 47.2755 72.0646C49.2503 73.5262 51.3937 74.745 53.6596 75.6947C54.7596 76.1535 55.8844 76.5504 57.0288 76.8833C60.4766 77.8886 64.0764 78.2693 67.6583 78.0074C68.1543 77.9688 68.6536 77.9205 69.1496 77.885L69.1979 79.5213V79.6276L73.0954 81.2124L95.4753 90.3086Z" fill="#F2D4CF"/>
<path d="M60.4398 31.0961C58.6868 34.0669 56.2812 36.6003 53.405 38.5045C50.2285 40.6865 46.7666 42.4207 43.1169 43.6582L34.5747 37.6348L30.4614 34.7358C32.3334 29.951 35.27 25.6551 39.0487 22.1737C40.0741 21.2421 41.1752 20.3975 42.3407 19.6484L46.528 22.2961L60.4398 31.0961Z" fill="url(#paint0_linear_7_132)"/>
<defs>
<linearGradient id="paint0_linear_7_132" x1="35.3896" y1="45.3814" x2="53.6562" y2="21.0689" gradientUnits="userSpaceOnUse">
<stop offset="0.29" stop-color="#00214E"/>
<stop offset="0.51" stop-color="#6878B1"/>
<stop offset="0.79" stop-color="#00214E"/>
</linearGradient>
</defs>
</svg>
