<svg width="90" height="120" viewBox="0 0 90 120" fill="none" xmlns="http://www.w3.org/2000/svg">
<path d="M81.8182 68H61.3636V64C61.3636 61.792 59.5309 60 57.2727 60H53.5214L51.4473 35.668C51.2714 33.596 49.5 32 47.3727 32H42.6273C40.5 32 38.7286 33.596 38.5486 35.668L36.4786 60H32.7273C30.4691 60 28.6364 61.792 28.6364 64V68H8.18182C3.66136 68 0 71.58 0 76V112C0 116.42 3.66136 120 8.18182 120H28.6364V104C28.6364 101.792 30.4691 100 32.7273 100H36.8182C39.0764 100 40.9091 101.792 40.9091 104V120H81.8182C86.3386 120 90 116.42 90 112V76C90 71.58 86.3386 68 81.8182 68ZM20.4545 108C20.4545 110.208 18.6218 112 16.3636 112H12.2727C10.0145 112 8.18182 110.208 8.18182 108V104C8.18182 101.792 10.0145 100 12.2727 100H16.3636C18.6218 100 20.4545 101.792 20.4545 104V108ZM20.4545 88C20.4545 90.208 18.6218 92 16.3636 92H12.2727C10.0145 92 8.18182 90.208 8.18182 88V84C8.18182 81.792 10.0145 80 12.2727 80H16.3636C18.6218 80 20.4545 81.792 20.4545 84V88ZM40.9091 88C40.9091 90.208 39.0764 92 36.8182 92H32.7273C30.4691 92 28.6364 90.208 28.6364 88V84C28.6364 81.792 30.4691 80 32.7273 80H36.8182C39.0764 80 40.9091 81.792 40.9091 84V88ZM61.3636 108C61.3636 110.208 59.5309 112 57.2727 112H53.1818C50.9236 112 49.0909 110.208 49.0909 108V104C49.0909 101.792 50.9236 100 53.1818 100H57.2727C59.5309 100 61.3636 101.792 61.3636 104V108ZM61.3636 88C61.3636 90.208 59.5309 92 57.2727 92H53.1818C50.9236 92 49.0909 90.208 49.0909 88V84C49.0909 81.792 50.9236 80 53.1818 80H57.2727C59.5309 80 61.3636 81.792 61.3636 84V88ZM81.8182 108C81.8182 110.208 79.9855 112 77.7273 112H73.6364C71.3782 112 69.5455 110.208 69.5455 108V104C69.5455 101.792 71.3782 100 73.6364 100H77.7273C79.9855 100 81.8182 101.792 81.8182 104V108ZM81.8182 88C81.8182 90.208 79.9855 92 77.7273 92H73.6364C71.3782 92 69.5455 90.208 69.5455 88V84C69.5455 81.792 71.3782 80 73.6364 80H77.7273C79.9855 80 81.8182 81.792 81.8182 84V88ZM0 10C0 6.688 2.74909 4 6.13636 4C7.41273 4 8.59909 4.384 9.58091 5.036C11.3482 2.04 14.6168 0 18.4091 0C22.8191 0 26.5459 2.748 27.9818 6.576C29.79 4.992 32.1545 4 34.7727 4C40.4223 4 45 8.476 45 14C45 14.788 44.8855 15.544 44.7095 16.28C47.2377 17.02 49.0909 19.288 49.0909 22C49.0909 25.312 46.3418 28 42.9545 28C40.1809 28 37.8614 26.188 37.1045 23.716C36.3518 23.888 35.5786 24 34.7727 24C30.3627 24 26.6359 21.252 25.2 17.424C23.3918 19.008 21.0273 20 18.4091 20C14.6168 20 11.3482 17.96 9.58091 14.964C8.59909 15.616 7.41273 16 6.13636 16C2.74909 16 0 13.312 0 10Z" fill="#065D9C"/>
</svg>
