<svg width="38" height="41" viewBox="0 0 38 41" fill="none" xmlns="http://www.w3.org/2000/svg">
<g clip-path="url(#clip0_5_99)">
<path fill-rule="evenodd" clip-rule="evenodd" d="M28.5 10.25H9.5C8.84331 10.25 8.3125 10.824 8.3125 11.5312C8.3125 12.2398 8.84331 12.8125 9.5 12.8125H28.5C29.1567 12.8125 29.6875 12.2398 29.6875 11.5312C29.6875 10.824 29.1567 10.25 28.5 10.25ZM35.625 35.875C35.625 37.2831 34.3354 38.4529 33.0327 38.4529H4.71912C3.41644 38.4529 2.35956 37.3126 2.35956 35.9045V5.33641C2.35956 3.92831 3.44613 2.5625 4.75 2.5625H33.25C34.5539 2.5625 35.625 3.71819 35.625 5.125V35.875ZM33.25 0H4.75C2.14462 0 0 2.52278 0 5.33641V35.9045C0 38.7194 2.11256 41 4.71912 41H33.0327C35.6392 41 38 38.6886 38 35.875V5.125C38 2.31137 35.8554 0 33.25 0ZM28.5 25.625H9.5C8.84331 25.625 8.3125 26.199 8.3125 26.9062C8.3125 27.6148 8.84331 28.1875 9.5 28.1875H28.5C29.1567 28.1875 29.6875 27.6148 29.6875 26.9062C29.6875 26.199 29.1567 25.625 28.5 25.625ZM28.5 17.9375H9.5C8.84331 17.9375 8.3125 18.5115 8.3125 19.2188C8.3125 19.9273 8.84331 20.5 9.5 20.5H28.5C29.1567 20.5 29.6875 19.9273 29.6875 19.2188C29.6875 18.5115 29.1567 17.9375 28.5 17.9375Z" fill="black"/>
</g>
<defs>
<clipPath id="clip0_5_99">
<rect width="38" height="41" fill="white"/>
</clipPath>
</defs>
</svg>
