<svg width="50" height="50" viewBox="0 0 50 50" fill="none" xmlns="http://www.w3.org/2000/svg">
<path d="M7.98186 10.9704H37.647C38.5605 10.9704 39.3012 10.1979 39.3012 9.24493C39.3012 8.29199 38.5605 7.51941 37.647 7.51941H7.98186C7.0683 7.51941 6.32764 8.29199 6.32764 9.24493C6.32764 10.1979 7.0683 10.9704 7.98186 10.9704Z" fill="black"/>
<path d="M7.98186 18.3326H37.647C38.5605 18.3326 39.3012 17.56 39.3012 16.6071C39.3012 15.6542 38.5605 14.8816 37.647 14.8816H7.98186C7.0683 14.8816 6.32764 15.6542 6.32764 16.6071C6.32764 17.56 7.0683 18.3326 7.98186 18.3326Z" fill="black"/>
<path d="M23.7202 22.2438H7.98186C7.0683 22.2438 6.32764 23.0164 6.32764 23.9693C6.32764 24.9222 7.0683 25.6948 7.98186 25.6948H23.7202C24.6338 25.6948 25.3744 24.9222 25.3744 23.9693C25.3744 23.0164 24.6338 22.2438 23.7202 22.2438Z" fill="black"/>
<path d="M49.9076 48.4779L45.5828 39.5458L47.2562 38.8491C47.6957 38.6661 48.0645 38.1369 48.0958 37.6444L48.2383 35.4046C48.2622 35.0294 48.4445 34.4441 48.6365 34.1262L49.783 32.2269C50.0352 31.8093 50.0352 31.155 49.7831 30.7373L48.6365 28.838C48.4447 28.5201 48.2623 27.9345 48.2384 27.5595L48.096 25.3198C48.0691 24.8982 47.7945 24.4503 47.4406 24.2152V3.45104C47.4406 1.54807 45.9565 0 44.1323 0H3.30833C1.4841 0 0 1.54807 0 3.45104V33.0118C0 34.9147 1.4841 36.4627 3.30833 36.4627H29.3301L29.4052 37.6445C29.4367 38.137 29.8053 38.6661 30.2448 38.8491L31.816 39.5032L27.4704 48.4779C27.3367 48.7542 27.3725 48.9207 27.4262 49.0116C27.4602 49.0693 27.5435 49.1659 27.7188 49.1659C27.8065 49.1659 27.9075 49.1412 28.019 49.0925L31.5788 47.5379C31.6663 47.4997 31.7704 47.4795 31.8799 47.4795C32.1414 47.4795 32.4079 47.5924 32.5588 47.7667L34.2688 49.7443C34.4113 49.9092 34.5878 50 34.7654 50C34.9999 50 35.2103 49.8419 35.3279 49.5774L38.6781 42.039C38.6854 42.0389 38.6925 42.0389 38.6998 42.0388L42.0502 49.5774C42.1677 49.842 42.378 50 42.6127 50C42.7902 50 42.9667 49.9092 43.1092 49.7442L44.8191 47.7668C44.9701 47.5924 45.2366 47.4795 45.498 47.4795C45.6073 47.4795 45.7116 47.4997 45.7991 47.5379L49.3589 49.0925C49.4704 49.1412 49.5714 49.1659 49.6591 49.1659C49.8346 49.1659 49.9177 49.0692 49.9517 49.0116C50.0055 48.9207 50.0413 48.7542 49.9076 48.4779ZM3.30833 3.45104H44.132L44.1323 22.3888L42.8391 20.7659C42.603 20.4696 42.1706 20.2706 41.7635 20.2706C41.6643 20.2706 41.5695 20.2825 41.4814 20.3058L39.3942 20.86C39.0618 20.9481 38.4392 20.9481 38.1066 20.86L36.0197 20.3058C35.9316 20.2825 35.8367 20.2706 35.7376 20.2706C35.3303 20.2706 34.8981 20.4696 34.662 20.7659L33.286 22.4928C33.0559 22.7818 32.5787 23.1435 32.2443 23.2827L30.2451 24.1152C29.8054 24.2982 29.4367 24.8273 29.4054 25.3198L29.2628 27.5595C29.2391 27.9348 29.0568 28.5201 28.8647 28.838L27.7183 30.7373C27.4661 31.1549 27.4661 31.8093 27.7183 32.2269L28.192 33.0117H3.30833V3.45104ZM38.7504 38.8187C34.866 38.8187 31.717 35.5341 31.717 31.4821C31.717 27.4301 34.866 24.1455 38.7504 24.1455C42.635 24.1455 45.7841 27.4301 45.7841 31.4821C45.7842 35.5341 42.635 38.8187 38.7504 38.8187Z" fill="black"/>
</svg>
