
<svg width="50" height="60" viewBox="0 0 50 60" fill="none" xmlns="http://www.w3.org/2000/svg">
<path d="M45.4545 34H34.0909V32C34.0909 30.896 33.0727 30 31.8182 30H29.7341L28.5818 17.834C28.4841 16.798 27.5 16 26.3182 16H23.6818C22.5 16 21.5159 16.798 21.4159 17.834L20.2659 30H18.1818C16.9273 30 15.9091 30.896 15.9091 32V34H4.54545C2.03409 34 0 35.79 0 38V56C0 58.21 2.03409 60 4.54545 60H15.9091V52C15.9091 50.896 16.9273 50 18.1818 50H20.4545C21.7091 50 22.7273 50.896 22.7273 52V60H45.4545C47.9659 60 50 58.21 50 56V38C50 35.79 47.9659 34 45.4545 34ZM11.3636 54C11.3636 55.104 10.3455 56 9.09091 56H6.81818C5.56364 56 4.54545 55.104 4.54545 54V52C4.54545 50.896 5.56364 50 6.81818 50H9.09091C10.3455 50 11.3636 50.896 11.3636 52V54ZM11.3636 44C11.3636 45.104 10.3455 46 9.09091 46H6.81818C5.56364 46 4.54545 45.104 4.54545 44V42C4.54545 40.896 5.56364 40 6.81818 40H9.09091C10.3455 40 11.3636 40.896 11.3636 42V44ZM22.7273 44C22.7273 45.104 21.7091 46 20.4545 46H18.1818C16.9273 46 15.9091 45.104 15.9091 44V42C15.9091 40.896 16.9273 40 18.1818 40H20.4545C21.7091 40 22.7273 40.896 22.7273 42V44ZM34.0909 54C34.0909 55.104 33.0727 56 31.8182 56H29.5455C28.2909 56 27.2727 55.104 27.2727 54V52C27.2727 50.896 28.2909 50 29.5455 50H31.8182C33.0727 50 34.0909 50.896 34.0909 52V54ZM34.0909 44C34.0909 45.104 33.0727 46 31.8182 46H29.5455C28.2909 46 27.2727 45.104 27.2727 44V42C27.2727 40.896 28.2909 40 29.5455 40H31.8182C33.0727 40 34.0909 40.896 34.0909 42V44ZM45.4545 54C45.4545 55.104 44.4364 56 43.1818 56H40.9091C39.6545 56 38.6364 55.104 38.6364 54V52C38.6364 50.896 39.6545 50 40.9091 50H43.1818C44.4364 50 45.4545 50.896 45.4545 52V54ZM45.4545 44C45.4545 45.104 44.4364 46 43.1818 46H40.9091C39.6545 46 38.6364 45.104 38.6364 44V42C38.6364 40.896 39.6545 40 40.9091 40H43.1818C44.4364 40 45.4545 40.896 45.4545 42V44ZM0 5C0 3.344 1.52727 2 3.40909 2C4.11818 2 4.77727 2.192 5.32273 2.518C6.30455 1.02 8.12045 0 10.2273 0C12.6773 0 14.7477 1.374 15.5455 3.288C16.55 2.496 17.8636 2 19.3182 2C22.4568 2 25 4.238 25 7C25 7.394 24.9364 7.772 24.8386 8.14C26.2432 8.51 27.2727 9.644 27.2727 11C27.2727 12.656 25.7455 14 23.8636 14C22.3227 14 21.0341 13.094 20.6136 11.858C20.1955 11.944 19.7659 12 19.3182 12C16.8682 12 14.7977 10.626 14 8.712C12.9955 9.504 11.6818 10 10.2273 10C8.12045 10 6.30455 8.98 5.32273 7.482C4.77727 7.808 4.11818 8 3.40909 8C1.52727 8 0 6.656 0 5Z" fill="#FFF457"/>
</svg>
