<svg width="71" height="88" viewBox="0 0 71 88" fill="none" xmlns="http://www.w3.org/2000/svg">
<path fill-rule="evenodd" clip-rule="evenodd" d="M23.1427 85.0108L17.33 75.0754C16.955 74.5183 16.3924 74.1469 15.7362 74.1469H2.7981L20.1758 47.093L25.5198 48.0216L29.645 55.5428C30.4887 57.307 32.5513 58.0498 34.4264 57.307L38.3641 55.5428L40.2392 58.7927L23.1427 85.0108Z" fill="white"/>
<path fill-rule="evenodd" clip-rule="evenodd" d="M19.4676 45.4806L26.4668 46.6967L30.9512 54.8729L30.9688 54.9097C31.4505 55.9167 32.6531 56.4167 33.8591 55.9533L38.9731 53.662L41.9604 58.8396L23.0751 87.8011L16.0917 75.8646C16.0148 75.7582 15.939 75.6939 15.881 75.6589C15.8232 75.6241 15.7782 75.6143 15.7362 75.6143H0.111572L19.4676 45.4806ZM20.8842 48.7055L5.48476 72.6795H15.7362C16.9931 72.6795 17.969 73.3968 18.5473 74.256L18.5732 74.2945L23.2104 82.2206L38.518 58.7457L37.7552 57.4236L34.997 58.6593L34.9669 58.6712C32.4452 59.6703 29.5542 58.7001 28.3404 56.2156L24.5729 49.3464L20.8842 48.7055Z" fill="#FFF457"/>
<path fill-rule="evenodd" clip-rule="evenodd" d="M52.7467 74.4919L46.6971 85.122L25.5398 54.2135C25.4423 53.9236 25.3447 53.7303 25.1495 53.5371L23.0029 49.7682L23.6859 49.4783L31.687 53.3438C32.2724 53.6337 32.8579 53.7303 33.4433 53.7303C34.8093 53.7303 36.1754 53.0539 36.8584 51.7976L41.2492 43.97L47.1036 42.907L67.8706 73.5255H54.4054C53.7224 73.5255 53.0394 73.9121 52.7467 74.4919Z" fill="white"/>
<path fill-rule="evenodd" clip-rule="evenodd" d="M47.7814 41.2925L70.6387 74.9929H54.4052C54.3345 74.9929 54.2447 75.015 54.1636 75.0618C54.0814 75.1093 54.0564 75.1533 54.0564 75.1532L54.0399 75.1859L46.8116 87.8873L24.2138 54.8745L24.1489 54.6816C24.1285 54.621 24.115 54.5874 24.1077 54.5706L23.9738 54.4381L20.9116 49.0617L23.7249 47.8676L32.3316 52.0256L32.338 52.0288C32.6761 52.1962 33.0275 52.2629 33.4431 52.2629C34.3579 52.2629 35.1816 51.8092 35.569 51.0967L35.5736 51.0882L40.3071 42.6496L47.7814 41.2925ZM42.1908 45.2904L38.1423 52.5078C37.1621 54.3017 35.2573 55.1977 33.4431 55.1977C32.6899 55.1977 31.8729 55.0719 31.0425 54.6622L26.126 52.2869L26.3417 52.6655C26.5912 52.9552 26.7436 53.2497 26.8557 53.5383L46.5823 82.3566L51.4561 73.7925C52.0346 72.6864 53.2469 72.0581 54.4052 72.0581H65.102L46.4254 44.5215L42.1908 45.2904Z" fill="#FFF457"/>
<path fill-rule="evenodd" clip-rule="evenodd" d="M34.8064 57.707L26.0717 62.3717L21.2697 53.7701L11.3755 53.0169L12.0309 43.2094L4.11841 37.2774L10.0231 29.3777L6.60457 20.1504L15.8838 16.6667L18.0446 7.07353L27.7523 9.11183L34.8064 2.19867L41.8605 9.11183L51.5682 7.07353L53.729 16.6667L63.0082 20.1504L59.5898 29.3777L65.4944 37.2774L57.582 43.2094L58.2373 53.0169L48.3431 53.7701L43.5411 62.3717L34.8064 57.707Z" fill="white"/>
<path fill-rule="evenodd" clip-rule="evenodd" d="M34.8065 0.144104L42.3271 7.5145L52.6821 5.34031L54.9866 15.5714L64.8919 19.2901L61.2432 29.1388L67.5471 37.5726L59.0993 43.9059L59.7985 54.3697L49.2403 55.1735L44.1204 64.3446L34.8065 59.3706L25.4926 64.3446L20.3727 55.1735L9.81452 54.3697L10.5138 43.9059L2.06592 37.5726L8.36979 29.1388L4.72113 19.2901L14.6265 15.5714L16.931 5.34031L27.2859 7.5145L34.8065 0.144104ZM34.8065 4.25327L28.219 10.7092L19.1585 8.80679L17.1414 17.762L8.48824 21.0107L11.6766 29.6167L6.17113 36.9823L13.5482 42.5129L12.9367 51.6641L22.167 52.3668L26.651 60.3989L34.8065 56.0435L42.962 60.3989L47.4461 52.3668L56.6764 51.6641L56.0649 42.5129L63.4419 36.9823L57.9365 29.6167L61.1248 21.0107L52.4717 17.762L50.4546 8.80679L41.394 10.7092L34.8065 4.25327Z" fill="#FFF457"/>
</svg>
