<svg width="90" height="79" viewBox="0 0 90 79" fill="none" xmlns="http://www.w3.org/2000/svg">
<path fill-rule="evenodd" clip-rule="evenodd" d="M80.4197 54.61C74.3369 68.4561 60.501 78.1304 44.4022 78.1304C23.338 78.1304 6.14224 61.5675 5.12788 40.7547L2.59193 43.7794C2.07124 44.4004 1.14571 44.4817 0.524696 43.961C-0.0963216 43.4404 -0.177659 42.5148 0.343025 41.8938L6.5208 34.5255L13.7526 41.2681C14.3454 41.8207 14.3779 42.7492 13.8253 43.342C13.2726 43.9347 12.3441 43.9673 11.7513 43.4146L8.03283 39.9477C8.63458 59.5166 24.6874 75.1956 44.4022 75.1956C59.295 75.1956 72.1013 66.2482 77.7328 53.4296C78.0588 52.6876 78.9245 52.3504 79.6665 52.6763C80.4084 53.0023 80.7457 53.868 80.4197 54.61ZM48.114 51.4344H40.5931V57.6082H36.3051V51.4344H31.6579V47.8872H36.3051V44.8115H31.6579V41.2868H36.3051V24.9205H48.3609C51.8631 24.9205 54.6395 25.8111 56.6899 27.5921C58.7404 29.3732 59.7656 31.7829 59.7656 34.8211C59.7656 38.0091 58.7778 40.4711 56.8022 42.2073C54.8415 43.9285 52.0502 44.7966 48.4283 44.8115H40.5931V47.8872H48.114V51.4344ZM40.5931 41.2868H48.3609C50.6808 41.2868 52.4468 40.7405 53.6592 39.648C54.8715 38.5554 55.4776 36.9614 55.4776 34.866C55.4776 32.9652 54.849 31.4311 53.5918 30.2637C52.3346 29.0813 50.6359 28.4827 48.4956 28.4677H40.5931V41.2868ZM8.38625 23.8579C14.4691 10.0118 28.305 0.33744 44.4037 0.33744C65.5496 0.33744 82.797 17.029 83.6892 37.9554L86.9348 34.3992C87.4812 33.8006 88.4093 33.7582 89.0079 34.3045C89.6065 34.8508 89.6488 35.779 89.1025 36.3776L82.3167 43.8128L74.363 37.5304C73.7271 37.028 73.6187 36.1053 74.1211 35.4693C74.6234 34.8334 75.5462 34.725 76.1821 35.2274L80.7821 38.8608C80.3573 19.1335 64.2328 3.27222 44.4037 3.27222C29.5109 3.27222 16.7046 12.2196 11.0732 25.0383C10.7472 25.7802 9.88147 26.1175 9.1395 25.7915C8.39752 25.4656 8.06029 24.5998 8.38625 23.8579Z" fill="#FFF457"/>
</svg>
